<svg width="104" height="36" viewBox="0 0 104 36" fill="none" xmlns="http://www.w3.org/2000/svg">
<path d="M5.592 22.832H10.968V26H1.488V9.152H5.592V22.832ZM12.1095 19.28C12.1095 17.904 12.3655 16.696 12.8775 15.656C13.4055 14.616 14.1175 13.816 15.0135 13.256C15.9095 12.696 16.9095 12.416 18.0135 12.416C18.9575 12.416 19.7815 12.608 20.4855 12.992C21.2055 13.376 21.7575 13.88 22.1415 14.504V12.608H26.2455V26H22.1415V24.104C21.7415 24.728 21.1815 25.232 20.4615 25.616C19.7575 26 18.9335 26.192 17.9895 26.192C16.9015 26.192 15.9095 25.912 15.0135 25.352C14.1175 24.776 13.4055 23.968 12.8775 22.928C12.3655 21.872 12.1095 20.656 12.1095 19.28ZM22.1415 19.304C22.1415 18.28 21.8535 17.472 21.2775 16.88C20.7175 16.288 20.0295 15.992 19.2135 15.992C18.3975 15.992 17.7015 16.288 17.1255 16.88C16.5655 17.456 16.2855 18.256 16.2855 19.28C16.2855 20.304 16.5655 21.12 17.1255 21.728C17.7015 22.32 18.3975 22.616 19.2135 22.616C20.0295 22.616 20.7175 22.32 21.2775 21.728C21.8535 21.136 22.1415 20.328 22.1415 19.304ZM28.5186 17.552C28.5186 15.888 28.8786 14.408 29.5986 13.112C30.3186 11.8 31.3186 10.784 32.5986 10.064C33.8946 9.328 35.3586 8.96 36.9906 8.96C38.9906 8.96 40.7026 9.488 42.1266 10.544C43.5506 11.6 44.5026 13.04 44.9826 14.864H40.4706C40.1346 14.16 39.6546 13.624 39.0306 13.256C38.4226 12.888 37.7266 12.704 36.9426 12.704C35.6786 12.704 34.6546 13.144 33.8706 14.024C33.0866 14.904 32.6946 16.08 32.6946 17.552C32.6946 19.024 33.0866 20.2 33.8706 21.08C34.6546 21.96 35.6786 22.4 36.9426 22.4C37.7266 22.4 38.4226 22.216 39.0306 21.848C39.6546 21.48 40.1346 20.944 40.4706 20.24H44.9826C44.5026 22.064 43.5506 23.504 42.1266 24.56C40.7026 25.6 38.9906 26.12 36.9906 26.12C35.3586 26.12 33.8946 25.76 32.5986 25.04C31.3186 24.304 30.3186 23.288 29.5986 21.992C28.8786 20.696 28.5186 19.216 28.5186 17.552ZM51.5998 22.832H56.9758V26H47.4958V9.152H51.5998V22.832ZM58.1173 19.28C58.1173 17.904 58.3733 16.696 58.8853 15.656C59.4133 14.616 60.1253 13.816 61.0213 13.256C61.9173 12.696 62.9173 12.416 64.0213 12.416C64.9653 12.416 65.7893 12.608 66.4933 12.992C67.2133 13.376 67.7653 13.88 68.1493 14.504V12.608H72.2533V26H68.1493V24.104C67.7493 24.728 67.1893 25.232 66.4693 25.616C65.7653 26 64.9413 26.192 63.9973 26.192C62.9093 26.192 61.9173 25.912 61.0213 25.352C60.1253 24.776 59.4133 23.968 58.8853 22.928C58.3733 21.872 58.1173 20.656 58.1173 19.28ZM68.1493 19.304C68.1493 18.28 67.8613 17.472 67.2853 16.88C66.7253 16.288 66.0373 15.992 65.2213 15.992C64.4053 15.992 63.7093 16.288 63.1333 16.88C62.5733 17.456 62.2933 18.256 62.2933 19.28C62.2933 20.304 62.5733 21.12 63.1333 21.728C63.7093 22.32 64.4053 22.616 65.2213 22.616C66.0373 22.616 66.7253 22.32 67.2853 21.728C67.8613 21.136 68.1493 20.328 68.1493 19.304ZM81.2464 22.16L84.1504 12.608H88.5184L83.7664 26H78.7024L73.9504 12.608H78.3424L81.2464 22.16ZM102.87 19.088C102.87 19.472 102.846 19.872 102.798 20.288H93.5098C93.5738 21.12 93.8378 21.76 94.3018 22.208C94.7818 22.64 95.3658 22.856 96.0538 22.856C97.0778 22.856 97.7898 22.424 98.1898 21.56H102.558C102.334 22.44 101.926 23.232 101.334 23.936C100.758 24.64 100.03 25.192 99.1498 25.592C98.2698 25.992 97.2858 26.192 96.1978 26.192C94.8858 26.192 93.7178 25.912 92.6938 25.352C91.6698 24.792 90.8698 23.992 90.2938 22.952C89.7178 21.912 89.4298 20.696 89.4298 19.304C89.4298 17.912 89.7098 16.696 90.2698 15.656C90.8458 14.616 91.6458 13.816 92.6698 13.256C93.6938 12.696 94.8698 12.416 96.1978 12.416C97.4938 12.416 98.6458 12.688 99.6538 13.232C100.662 13.776 101.446 14.552 102.006 15.56C102.582 16.568 102.87 17.744 102.87 19.088ZM98.6698 18.008C98.6698 17.304 98.4298 16.744 97.9498 16.328C97.4698 15.912 96.8698 15.704 96.1498 15.704C95.4618 15.704 94.8778 15.904 94.3978 16.304C93.9338 16.704 93.6458 17.272 93.5338 18.008H98.6698Z" fill="white"/>
</svg>
